# Exported from Wings 3D 1.4.1
mtllib crate.mtl
o cube1
#92 vertices, 78 faces
v -0.50000000 -0.50000000 0.50000000
v -0.50000000 0.50000000 0.50000000
v 0.50000000 0.50000000 0.50000000
v 0.50000000 -0.50000000 0.50000000
v -0.50000000 -0.50000000 -0.50000000
v -0.50000000 0.50000000 -0.50000000
v 0.50000000 0.50000000 -0.50000000
v 0.50000000 -0.50000000 -0.50000000
v -0.50000000 -0.37500000 0.37500000
v -0.50000000 0.37500000 0.37500000
v -0.50000000 0.37500000 -0.37500000
v -0.50000000 -0.37500000 -0.37500000
v -0.50000000 -0.28125000 0.37500000
v -0.50000000 0.37500000 -0.28125000
v -0.50000000 0.28125000 -0.37500000
v -0.50000000 -0.37500000 0.28125000
v -0.47000000 0.28125000 -0.37500000
v -0.47000000 -0.37500000 -0.37500000
v -0.47000000 -0.37500000 0.28125000
v -0.47000000 -0.28125000 0.37500000
v -0.47000000 0.37500000 0.37500000
v -0.47000000 0.37500000 -0.28125000
v -0.38500000 0.38500000 0.50000000
v -0.38500000 -0.38500000 0.50000000
v 0.38500000 -0.38500000 0.50000000
v 0.38500000 0.38500000 0.50000000
v 0.50000000 0.38500000 0.38500000
v 0.50000000 -0.38500000 0.38500000
v 0.50000000 -0.38500000 -0.38500000
v 0.50000000 0.38500000 -0.38500000
v 0.38500000 -0.50000000 0.38500000
v -0.38500000 -0.50000000 0.38500000
v -0.38500000 -0.50000000 -0.38500000
v 0.38500000 -0.50000000 -0.38500000
v -0.38500000 0.50000000 0.38500000
v 0.38500000 0.50000000 0.38500000
v 0.38500000 0.50000000 -0.38500000
v -0.38500000 0.50000000 -0.38500000
v -0.38500000 -0.38500000 -0.50000000
v -0.38500000 0.38500000 -0.50000000
v 0.38500000 0.38500000 -0.50000000
v 0.38500000 -0.38500000 -0.50000000
v -0.38500000 -0.28875000 -0.50000000
v 0.28875000 0.38500000 -0.50000000
v 0.38500000 0.28875000 -0.50000000
v -0.28875000 -0.38500000 -0.50000000
v 0.28875000 0.50000000 0.38500000
v 0.38500000 0.50000000 0.28875000
v -0.28875000 0.50000000 -0.38500000
v -0.38500000 0.50000000 -0.28875000
v -0.38500000 0.28875000 0.50000000
v 0.28875000 -0.38500000 0.50000000
v 0.38500000 -0.28875000 0.50000000
v -0.28875000 0.38500000 0.50000000
v 0.28875000 -0.50000000 0.38500000
v -0.38500000 -0.50000000 -0.28875000
v -0.28875000 -0.50000000 -0.38500000
v 0.38500000 -0.50000000 0.28875000
v 0.50000000 0.28875000 0.38500000
v 0.50000000 -0.38500000 -0.28875000
v 0.50000000 -0.28875000 -0.38500000
v 0.50000000 0.38500000 0.28875000
v 0.38500000 -0.47000000 0.28875000
v -0.28875000 -0.47000000 -0.38500000
v 0.38500000 -0.47000000 -0.38500000
v -0.28875000 0.38500000 0.47000000
v 0.38500000 -0.28875000 0.47000000
v 0.38500000 0.38500000 0.47000000
v 0.47000000 0.38500000 0.28875000
v 0.47000000 -0.28875000 -0.38500000
v 0.47000000 0.38500000 -0.38500000
v 0.28875000 0.47000000 0.38500000
v -0.38500000 0.47000000 -0.28875000
v -0.38500000 0.47000000 0.38500000
v -0.28875000 0.47000000 -0.38500000
v 0.38500000 0.47000000 0.28875000
v 0.38500000 0.47000000 -0.38500000
v -0.28875000 -0.38500000 -0.47000000
v 0.38500000 0.28875000 -0.47000000
v 0.38500000 -0.38500000 -0.47000000
v 0.28875000 0.38500000 -0.47000000
v -0.38500000 -0.28875000 -0.47000000
v -0.38500000 0.38500000 -0.47000000
v -0.38500000 -0.47000000 -0.28875000
v 0.28875000 -0.47000000 0.38500000
v -0.38500000 -0.47000000 0.38500000
v 0.47000000 -0.38500000 -0.28875000
v 0.47000000 0.28875000 0.38500000
v 0.47000000 -0.38500000 0.38500000
v 0.28875000 -0.38500000 0.47000000
v -0.38500000 0.28875000 0.47000000
v -0.38500000 -0.38500000 0.47000000
vt -2.2204460e-16 1.00000000
vt 0.0000000e+0 0.0000000e+0
vt 0.0000000e+0 1.1102230e-16
vt 0.0000000e+0 3.3306691e-16
vt 0.0000000e+0 1.00000000
vt 2.2204460e-16 -2.2204460e-16
vt 2.2204460e-16 1.00000000
vt 2.2204460e-16 1.00000000
vt 2.3850964e-4 0.0000000e+0
vt 1.6700744e-3 0.0000000e+0
vt 1.6700744e-3 0.99982649
vt 3.2307214e-3 1.00000000
vt 0.11341793 0.88434808
vt 0.11369308 0.11491497
vt 0.11374323 0.78821896
vt 0.11500000 0.78875000
vt 0.11500000 0.88500000
vt 0.11500000 0.11500000
vt 0.11500000 0.11500000
vt 0.11500000 0.78875000
vt 0.11500000 0.88500000
vt 0.11500000 0.11500000
vt 0.11500000 0.78875000
vt 0.11500000 0.78875000
vt 0.11500000 0.88500000
vt 0.11500000 0.88500000
vt 0.11518365 0.11494514
vt 0.11518365 0.78837375
vt 0.11518365 0.88457784
vt 0.16045831 0.69497196
vt 0.16069368 0.16176512
vt 0.16187500 0.69500000
vt 0.16187500 0.16187500
vt 0.16187500 0.16187500
vt 0.16187500 0.69500000
vt 0.16187500 0.16187500
vt 0.16187500 0.69500000
vt 0.16187500 0.69500000
vt 0.16203629 0.16179778
vt 0.16203629 0.69466847
vt 0.20945072 0.88486862
vt 0.21125000 0.88500000
vt 0.21125000 0.88500000
vt 0.21125000 0.88500000
vt 0.21125000 0.88500000
vt 0.21138774 0.88457784
vt 0.30309770 0.83800176
vt 0.30500000 0.83812500
vt 0.30500000 0.83812500
vt 0.30500000 0.83812500
vt 0.30500000 0.83812500
vt 0.30509302 0.83772520
vt 0.69344556 0.16193413
vt 0.69490698 0.16179778
vt 0.69500000 0.16187500
vt 0.69500000 0.16187500
vt 0.69500000 0.16187500
vt 0.78731469 0.11466422
vt 0.78861226 0.11494514
vt 0.78875000 0.11500000
vt 0.78875000 0.11500000
vt 0.78875000 0.11500000
vt 0.78875000 0.11500000
vt 0.83654857 0.83791500
vt 0.83667232 0.30477290
vt 0.83796371 0.30485451
vt 0.83796371 0.83772520
vt 0.83812500 0.83812500
vt 0.83812500 0.30500000
vt 0.83812500 0.30500000
vt 0.83812500 0.83812500
vt 0.83812500 0.30500000
vt 0.83812500 0.83812500
vt 0.88347232 0.11498183
vt 0.88347232 0.21102245
vt 0.88350220 0.88508551
vt 0.88481635 0.11494514
vt 0.88481635 0.21114923
vt 0.88481635 0.88457784
vt 0.88500000 0.88500000
vt 0.88500000 0.11500000
vt 0.88500000 0.11500000
vt 0.88500000 0.21125000
vt 0.88500000 0.21125000
vt 0.88500000 0.88500000
vt 0.88500000 0.11500000
vt 0.88500000 0.21125000
vt 0.88500000 0.11500000
vt 0.88500000 0.21125000
vt 0.88500000 0.88500000
vt 0.99828655 2.6027134e-4
vt 0.99832993 1.00000000
vt 0.99976149 0.0000000e+0
vt 0.99976149 0.99952298
vt 1.00000000 1.00000000
vt 1.00000000 1.1102230e-16
vt 1.00000000 2.2204460e-16
vt 1.00000000 -2.2204460e-16
vt 1.00000000 0.0000000e+0
vt 1.00000000 1.00000000
vt 1.00000000 1.00000000
vn -0.57735027 -0.57735027 0.57735027
vn -0.57735027 0.57735027 0.57735027
vn 0.57735027 0.57735027 0.57735027
vn 0.57735027 -0.57735027 0.57735027
vn -0.57735027 -0.57735027 -0.57735027
vn -0.57735027 0.57735027 -0.57735027
vn 0.57735027 0.57735027 -0.57735027
vn 0.57735027 -0.57735027 -0.57735027
vn -1.00000000 0.0000000e+0 0.0000000e+0
vn -0.81649658 -0.40824829 -0.40824829
vn -1.00000000 0.0000000e+0 0.0000000e+0
vn -0.81649658 0.40824829 0.40824829
vn -0.93394883 0.33020078 -0.13677364
vn -0.93394883 -0.13677364 0.33020078
vn -0.93394883 -0.33020078 0.13677364
vn -0.93394883 0.13677364 -0.33020078
vn -0.79410449 -0.56151667 0.23258782
vn -0.57735027 0.57735027 0.57735027
vn -0.79410449 0.23258782 -0.56151667
vn -0.79410449 0.56151667 -0.23258782
vn -0.57735027 -0.57735027 -0.57735027
vn -0.79410449 -0.23258782 0.56151667
vn 0.0000000e+0 0.0000000e+0 1.00000000
vn 0.40824829 0.40824829 0.81649658
vn 0.0000000e+0 0.0000000e+0 1.00000000
vn -0.40824829 -0.40824829 0.81649658
vn 1.00000000 6.6578844e-17 0.0000000e+0
vn 0.81649658 0.40824829 -0.40824829
vn 1.00000000 6.6578844e-17 0.0000000e+0
vn 0.81649658 -0.40824829 0.40824829
vn 0.0000000e+0 -1.00000000 0.0000000e+0
vn 0.40824829 -0.81649658 -0.40824829
vn 0.0000000e+0 -1.00000000 0.0000000e+0
vn -0.40824829 -0.81649658 0.40824829
vn 0.40824829 0.81649658 -0.40824829
vn 0.0000000e+0 1.00000000 -6.6578844e-17
vn -0.40824829 0.81649658 0.40824829
vn 0.0000000e+0 1.00000000 -6.6578844e-17
vn 0.0000000e+0 0.0000000e+0 -1.00000000
vn 0.40824829 -0.40824829 -0.81649658
vn 0.0000000e+0 0.0000000e+0 -1.00000000
vn -0.40824829 0.40824829 -0.81649658
vn 0.13677364 0.33020078 -0.93394883
vn -0.33020078 -0.13677364 -0.93394883
vn -0.13677364 -0.33020078 -0.93394883
vn 0.33020078 0.13677364 -0.93394883
vn -0.33020078 0.93394883 -0.13677364
vn -0.13677364 0.93394883 -0.33020078
vn 0.33020078 0.93394883 0.13677364
vn 0.13677364 0.93394883 0.33020078
vn 0.13677364 -0.33020078 0.93394883
vn -0.33020078 0.13677364 0.93394883
vn -0.13677364 0.33020078 0.93394883
vn 0.33020078 -0.13677364 0.93394883
vn -0.33020078 -0.93394883 -0.13677364
vn 0.13677364 -0.93394883 0.33020078
vn 0.33020078 -0.93394883 0.13677364
vn -0.13677364 -0.93394883 -0.33020078
vn 0.93394883 -0.33020078 -0.13677364
vn 0.93394883 0.13677364 0.33020078
vn 0.93394883 0.33020078 0.13677364
vn 0.93394883 -0.13677364 -0.33020078
vn -0.23258782 -0.79410449 -0.56151667
vn 0.56151667 -0.79410449 0.23258782
vn -0.57735027 -0.57735027 0.57735027
vn 0.56151667 -0.23258782 0.79410449
vn -0.23258782 0.56151667 0.79410449
vn -0.57735027 -0.57735027 0.57735027
vn 0.79410449 -0.23258782 -0.56151667
vn 0.79410449 0.56151667 0.23258782
vn 0.57735027 -0.57735027 0.57735027
vn -0.56151667 0.79410449 -0.23258782
vn 0.23258782 0.79410449 0.56151667
vn 0.57735027 0.57735027 -0.57735027
vn 0.56151667 0.79410449 0.23258782
vn -0.23258782 0.79410449 -0.56151667
vn -0.57735027 0.57735027 0.57735027
vn 0.56151667 0.23258782 -0.79410449
vn -0.23258782 -0.56151667 -0.79410449
vn -0.57735027 0.57735027 -0.57735027
vn -0.56151667 -0.23258782 -0.79410449
vn 0.23258782 0.56151667 -0.79410449
vn 0.57735027 -0.57735027 -0.57735027
vn 0.23258782 -0.79410449 0.56151667
vn -0.56151667 -0.79410449 -0.23258782
vn 0.57735027 -0.57735027 -0.57735027
vn 0.79410449 0.23258782 0.56151667
vn 0.79410449 -0.56151667 -0.23258782
vn 0.57735027 0.57735027 -0.57735027
vn -0.56151667 0.23258782 0.79410449
vn 0.23258782 -0.56151667 0.79410449
vn 0.57735027 0.57735027 0.57735027
g cube1_cube1_auv
usemtl cube1_auv
s 1
f 1/91/1 9/74/9 16/58/16 12/14/12 5/10/5
f 1/2/1 24/18/24 51/20/51 23/21/23 2/5/2
f 1/4/1 32/19/32 55/60/55 31/82/31 4/96/4
f 2/92/2 10/76/10 13/75/13 9/74/9 1/91/1
f 2/5/2 23/21/23 54/45/54 26/90/26 3/101/3
f 2/9/2 35/27/35 50/28/50 38/29/38 6/12/6
f 3/101/3 26/90/26 53/89/53 25/88/25 4/99/4
f 3/7/3 27/25/27 62/44/62 30/85/30 7/100/7
f 3/93/3 36/77/36 47/59/47 35/27/35 2/9/2
f 4/99/4 25/88/25 52/63/52 24/18/24 1/2/1
f 4/6/4 28/22/28 59/23/59 27/25/27 3/7/3
f 4/96/4 31/82/31 58/84/58 34/90/34 8/101/8
f 5/10/5 12/14/12 15/15/15 11/13/11 6/11/6
f 5/8/5 33/26/33 56/24/56 32/19/32 1/4/1
f 5/97/5 39/86/39 46/61/46 42/18/42 8/3/8
f 6/11/6 11/13/11 14/41/14 10/76/10 2/92/2
f 6/12/6 38/29/38 49/46/49 37/79/37 7/94/7
f 6/95/6 40/80/40 43/87/43 39/86/39 5/97/5
f 7/100/7 30/85/30 61/83/61 29/81/29 8/98/8
f 7/94/7 37/79/37 48/78/48 36/77/36 3/93/3
f 7/1/7 41/17/41 44/42/44 40/80/40 6/95/6
f 8/98/8 29/81/29 60/62/60 28/22/28 4/6/4
f 8/101/8 34/90/34 57/43/57 33/26/33 5/8/5
f 8/3/8 42/18/42 45/16/45 41/17/41 7/1/7
f 10/76/10 21/64/21 20/65/20 13/75/13
f 11/13/11 15/15/15 16/58/16 9/74/9 13/75/13 14/41/14
f 12/14/12 18/31/18 17/30/17 15/15/15
f 13/75/13 20/65/20 22/47/22 14/41/14
f 14/41/14 22/47/22 21/64/21 10/76/10
f 15/15/15 17/30/17 19/53/19 16/58/16
f 16/58/16 19/53/19 18/31/18 12/14/12
f 18/31/18 19/53/19 17/30/17
f 21/64/21 22/47/22 20/65/20
f 24/18/24 92/33/92 91/35/91 51/20/51
f 25/88/25 53/89/53 54/45/54 23/21/23 51/20/51 52/63/52
f 26/90/26 68/73/68 67/72/67 53/89/53
f 28/22/28 89/36/89 88/37/88 59/23/59
f 29/81/29 61/83/61 62/44/62 27/25/27 59/23/59 60/62/60
f 30/85/30 71/71/71 70/69/70 61/83/61
f 32/19/32 86/34/86 85/55/85 55/60/55
f 33/26/33 57/43/57 58/84/58 31/82/31 55/60/55 56/24/56
f 34/90/34 65/73/65 64/49/64 57/43/57
f 35/27/35 74/39/74 73/40/73 50/28/50
f 36/77/36 48/78/48 49/46/49 38/29/38 50/28/50 47/59/47
f 37/79/37 77/67/77 76/66/76 48/78/48
f 40/80/40 83/68/83 82/70/82 43/87/43
f 41/17/41 45/16/45 46/61/46 39/86/39 43/87/43 44/42/44
f 42/18/42 80/33/80 79/32/79 45/16/45
f 43/87/43 82/70/82 81/48/81 44/42/44
f 44/42/44 81/48/81 83/68/83 40/80/40
f 45/16/45 79/32/79 78/56/78 46/61/46
f 46/61/46 78/56/78 80/33/80 42/18/42
f 47/59/47 72/54/72 74/39/74 35/27/35
f 48/78/48 76/66/76 75/52/75 49/46/49
f 49/46/49 75/52/75 77/67/77 37/79/37
f 50/28/50 73/40/73 72/54/72 47/59/47
f 51/20/51 91/35/91 90/55/90 52/63/52
f 52/63/52 90/55/90 92/33/92 24/18/24
f 53/89/53 67/72/67 66/51/66 54/45/54
f 54/45/54 66/51/66 68/73/68 26/90/26
f 55/60/55 85/55/85 84/38/84 56/24/56
f 56/24/56 84/38/84 86/34/86 32/19/32
f 57/43/57 64/49/64 63/70/63 58/84/58
f 58/84/58 63/70/63 65/73/65 34/90/34
f 59/23/59 88/37/88 87/57/87 60/62/60
f 60/62/60 87/57/87 89/36/89 28/22/28
f 61/83/61 70/69/70 69/50/69 62/44/62
f 62/44/62 69/50/69 71/71/71 30/85/30
f 64/49/64 65/73/65 63/70/63
f 67/72/67 68/73/68 66/51/66
f 70/69/70 71/71/71 69/50/69
f 73/40/73 74/39/74 72/54/72
f 76/66/76 77/67/77 75/52/75
f 79/32/79 80/33/80 78/56/78
f 82/70/82 83/68/83 81/48/81
f 85/55/85 86/34/86 84/38/84
f 88/37/88 89/36/89 87/57/87
f 91/35/91 92/33/92 90/55/90
