# Exported from Wings 3D 1.4.1
mtllib treads.mtl
o cylinder3
#80 vertices, 46 faces
v -0.14000000 -5.1518515e-4 -0.20113055
v -0.14000000 7.0968616e-3 0.23896625
v -0.14000000 2.8774137e-2 0.27104181
v -0.14000000 6.1216472e-2 0.29247401
v -0.14000000 9.9484815e-2 0.30000000
v -0.14000000 0.13775316 0.29247401
v -0.14000000 0.17019549 0.27104181
v -0.14000000 0.19187277 0.23896625
v -0.14000000 0.19948481 -0.20113055
v -0.14000000 0.19187277 -0.23896625
v -0.14000000 0.17019549 -0.27104181
v -0.14000000 0.13775316 -0.29247401
v -0.14000000 9.9484815e-2 -0.30000000
v -0.14000000 6.1216472e-2 -0.29247401
v -0.14000000 2.8774137e-2 -0.27104181
v -0.14000000 7.0968616e-3 -0.23896625
v -0.26000000 -5.1518515e-4 -0.20113055
v -0.26000000 7.0968616e-3 0.23896625
v -0.26000000 2.8774137e-2 0.27104181
v -0.26000000 6.1216472e-2 0.29247401
v -0.26000000 9.9484815e-2 0.30000000
v -0.26000000 0.13775316 0.29247401
v -0.26000000 0.17019549 0.27104181
v -0.26000000 0.19187277 0.23896625
v -0.26000000 0.19948481 -0.20113055
v -0.26000000 0.19187277 -0.23896625
v -0.26000000 0.17019549 -0.27104181
v -0.26000000 0.13775316 -0.29247401
v -0.26000000 9.9484815e-2 -0.30000000
v -0.26000000 6.1216472e-2 -0.29247401
v -0.26000000 2.8774137e-2 -0.27104181
v -0.26000000 7.0968616e-3 -0.23896625
v -0.14000000 -5.1518515e-4 0.20113055
v -0.14000000 0.19948481 0.20113055
v -0.26000000 -5.1518515e-4 0.20113055
v -0.26000000 0.19948481 0.20113055
v -0.15312000 5.8884815e-2 0.22620000
v -0.15312000 0.14008481 0.22620000
v 0.15312000 0.14008481 0.22620000
v 0.15312000 5.8884815e-2 0.22620000
v -0.15312000 5.8884815e-2 -0.22620000
v -0.15312000 0.14008481 -0.22620000
v 0.15312000 0.14008481 -0.22620000
v 0.15312000 5.8884815e-2 -0.22620000
v 0.26000000 -5.1518515e-4 -0.20113055
v 0.26000000 7.0968616e-3 0.23896625
v 0.26000000 2.8774137e-2 0.27104181
v 0.26000000 6.1216472e-2 0.29247401
v 0.26000000 9.9484815e-2 0.30000000
v 0.26000000 0.13775316 0.29247401
v 0.26000000 0.17019549 0.27104181
v 0.26000000 0.19187277 0.23896625
v 0.26000000 0.19948481 -0.20113055
v 0.26000000 0.19187277 -0.23896625
v 0.26000000 0.17019549 -0.27104181
v 0.26000000 0.13775316 -0.29247401
v 0.26000000 9.9484815e-2 -0.30000000
v 0.26000000 6.1216472e-2 -0.29247401
v 0.26000000 2.8774137e-2 -0.27104181
v 0.26000000 7.0968616e-3 -0.23896625
v 0.14000000 -5.1518515e-4 -0.20113055
v 0.14000000 7.0968616e-3 0.23896625
v 0.14000000 2.8774137e-2 0.27104181
v 0.14000000 6.1216472e-2 0.29247401
v 0.14000000 9.9484815e-2 0.30000000
v 0.14000000 0.13775316 0.29247401
v 0.14000000 0.17019549 0.27104181
v 0.14000000 0.19187277 0.23896625
v 0.14000000 0.19948481 -0.20113055
v 0.14000000 0.19187277 -0.23896625
v 0.14000000 0.17019549 -0.27104181
v 0.14000000 0.13775316 -0.29247401
v 0.14000000 9.9484815e-2 -0.30000000
v 0.14000000 6.1216472e-2 -0.29247401
v 0.14000000 2.8774137e-2 -0.27104181
v 0.14000000 7.0968616e-3 -0.23896625
v 0.26000000 -5.1518515e-4 0.20113055
v 0.26000000 0.19948481 0.20113055
v 0.14000000 -5.1518515e-4 0.20113055
v 0.14000000 0.19948481 0.20113055
vt 1.5542245e-3 0.25278638
vt 1.6709826e-3 8.5865118e-2
vt 1.6709826e-3 8.6028297e-2
vt 1.6858967e-3 0.25306050
vt 6.1839408e-3 0.34065681
vt 6.1839408e-3 0.54346855
vt 6.2134547e-3 0.54325991
vt 6.2134547e-3 0.34044817
vt 6.6976236e-3 0.33948237
vt 6.6976236e-3 0.54229411
vt 7.2463280e-3 0.54225105
vt 7.2463280e-3 0.33943931
vt 7.3637343e-3 0.99623592
vt 7.3637343e-3 0.99623592
vt 7.3637343e-3 0.54773592
vt 7.3637343e-3 0.54773592
vt 7.7933532e-3 0.28476466
vt 7.9027816e-3 5.4177923e-2
vt 7.9031729e-3 0.22086381
vt 7.9303377e-3 0.11776436
vt 7.9377282e-3 0.11783768
vt 7.9404125e-3 0.22115652
vt 7.9618517e-3 0.28494358
vt 7.9674549e-3 5.3990269e-2
vt 2.5659167e-2 0.31184612
vt 2.5736216e-2 2.7139219e-2
vt 2.5760940e-2 0.14484838
vt 2.5786418e-2 0.14481256
vt 2.5806907e-2 0.19413951
vt 2.5819579e-2 0.31197047
vt 2.5821896e-2 0.19385217
vt 2.5828491e-2 2.6941922e-2
vt 5.2410601e-2 0.32994153
vt 5.2447693e-2 0.16291235
vt 5.2460699e-2 9.0617562e-3
vt 5.2518603e-2 0.17604122
vt 5.2520034e-2 0.16288188
vt 5.2540807e-2 0.33003638
vt 5.2577442e-2 0.17583265
vt 5.2580306e-2 8.9173701e-3
vt 8.3930051e-2 0.16928487
vt 8.3979169e-2 2.6883601e-3
vt 8.3980354e-2 0.33629295
vt 8.4043028e-2 0.33640188
vt 8.4059211e-2 2.5864808e-3
vt 8.4075036e-2 0.16921117
vt 8.4101186e-2 0.16969288
vt 8.4126050e-2 0.16955596
vt 0.41909888 0.16955029
vt 0.41924457 2.8132994e-3
vt 0.41924576 0.33641789
vt 0.41925559 0.16929548
vt 0.41928174 0.16977719
vt 0.41929488 0.16982138
vt 0.41929756 0.33640188
vt 0.41931374 2.5864808e-3
vt 0.45064748 0.16327360
vt 0.45076423 0.33004449
vt 0.45077647 0.33007099
vt 0.45077723 0.17619390
vt 0.45081433 9.1647196e-3
vt 0.45081596 8.9519891e-3
vt 0.45083674 0.17610649
vt 0.45083817 0.16294715
vt 0.47740303 0.14525408
vt 0.47746399 0.19425787
vt 0.47748871 0.31196703
vt 0.47752828 0.31204644
vt 0.47753719 2.7017898e-2
vt 0.47754986 0.14484886
vt 0.47756576 2.7260127e-2
vt 0.47757035 0.19417581
vt 0.49528720 0.22126857
vt 0.49532175 0.11824244
vt 0.49532214 0.28492833
vt 0.49538932 0.28499810
vt 0.49539492 5.4044781e-2
vt 0.49541636 0.11783185
vt 0.49542643 0.22122401
vt 0.49543157 5.4341586e-2
vt 0.50155394 0.25307795
vt 0.50167070 8.6319874e-2
vt 0.50167088 8.5927861e-2
vt 0.50168579 0.25312325
vt 0.54765665 0.33808017
vt 0.54765665 2.6021697e-3
vt 0.54765665 0.33808017
vt 0.54765665 2.6021697e-3
vt 0.63660915 0.33808017
vt 0.63660915 2.6021697e-3
vt 0.63660915 0.33808017
vt 0.63660915 2.6021697e-3
vt 0.66992055 0.99623592
vt 0.66992055 0.54773592
vt 0.66992055 0.99623592
vt 0.66992055 0.54773592
vt 0.68604456 0.34065681
vt 0.68604456 0.54346855
vt 0.68607408 0.54325991
vt 0.68607408 0.34044817
vt 0.68655825 0.33948237
vt 0.68655825 0.54229411
vt 0.68710695 0.54225105
vt 0.68710695 0.33943931
vt 0.68801927 0.80020837
vt 0.68801927 0.70094425
vt 0.68801927 0.60137198
vt 0.68801927 0.50136554
vt 0.68801927 0.20073446
vt 0.68801927 0.40105322
vt 0.68801927 0.10116219
vt 0.68801927 0.30074090
vt 0.68801927 1.8980737e-3
vt 0.68803675 0.10046371
vt 0.68803675 0.30004243
vt 0.68803675 0.50066706
vt 0.68803675 0.20003598
vt 0.68803675 0.40035475
vt 0.68803675 0.70024578
vt 0.68803675 0.60067351
vt 0.68803675 1.1995977e-3
vt 0.68803675 0.79950989
vt 0.68842635 2.2428459e-3
vt 0.68842635 0.20107923
vt 0.68842635 0.10150696
vt 0.68842635 0.50171031
vt 0.68842635 0.60171675
vt 0.68842635 0.30108568
vt 0.68842635 0.40139799
vt 0.68842635 0.70128902
vt 0.68842635 0.80055314
vt 0.68881943 0.70080845
vt 0.68881943 1.7622732e-3
vt 0.68881943 0.10102639
vt 0.68881943 0.20059866
vt 0.68881943 0.30060510
vt 0.68881943 0.40091742
vt 0.68881943 0.50122974
vt 0.68881943 0.60123618
vt 0.68881943 0.80007257
vt 0.99666174 0.80020837
vt 0.99666174 0.70094425
vt 0.99666174 0.50136554
vt 0.99666174 0.30074090
vt 0.99666174 0.60137198
vt 0.99666174 0.40105322
vt 0.99666174 0.20073446
vt 0.99666174 0.10116219
vt 0.99666174 1.8980737e-3
vt 0.99667922 1.1995977e-3
vt 0.99667922 0.20003598
vt 0.99667922 0.40035475
vt 0.99667922 0.30004243
vt 0.99667922 0.50066706
vt 0.99667922 0.10046371
vt 0.99667922 0.70024578
vt 0.99667922 0.60067351
vt 0.99667922 0.79950989
vt 0.99706882 0.10150696
vt 0.99706882 0.80055314
vt 0.99706882 0.30108568
vt 0.99706882 0.60171675
vt 0.99706882 0.40139799
vt 0.99706882 0.70128902
vt 0.99706882 0.50171031
vt 0.99706882 2.2428459e-3
vt 0.99706882 0.20107923
vt 0.99746190 0.10102639
vt 0.99746190 0.20059866
vt 0.99746190 0.30060510
vt 0.99746190 0.40091742
vt 0.99746190 0.50122974
vt 0.99746190 0.60123618
vt 0.99746190 0.70080845
vt 0.99746190 0.80007257
vt 0.99746190 1.7622732e-3
vn 0.44898101 -0.88914235 -8.8554690e-2
vn 0.45429230 -0.82176485 0.34397824
vn 0.45418073 -0.62665086 0.63326817
vn 0.45407169 -0.33790765 0.82440119
vn 0.45402726 -8.8212515e-17 0.89098780
vn 0.45407169 0.33790765 0.82440119
vn 0.45418073 0.62665086 0.63326817
vn 0.45429230 0.82176485 0.34397824
vn 0.44898101 0.88914235 -8.8554690e-2
vn 0.45429230 0.82176485 -0.34397824
vn 0.45418073 0.62665086 -0.63326817
vn 0.45407169 0.33790765 -0.82440119
vn 0.45402726 -5.0407151e-17 -0.89098780
vn 0.45407169 -0.33790765 -0.82440119
vn 0.45418073 -0.62665086 -0.63326817
vn 0.45429230 -0.82176485 -0.34397824
vn -0.44898101 -0.88914235 -8.8554690e-2
vn -0.45429230 -0.82176485 0.34397824
vn -0.45418073 -0.62665086 0.63326817
vn -0.45407169 -0.33790765 0.82440119
vn -0.45402726 8.8212515e-17 0.89098780
vn -0.45407169 0.33790765 0.82440119
vn -0.45418073 0.62665086 0.63326817
vn -0.45429230 0.82176485 0.34397824
vn -0.44898101 0.88914235 -8.8554690e-2
vn -0.45429230 0.82176485 -0.34397824
vn -0.45418073 0.62665086 -0.63326817
vn -0.45407169 0.33790765 -0.82440119
vn -0.45402726 1.2601788e-16 -0.89098780
vn -0.45407169 -0.33790765 -0.82440119
vn -0.45418073 -0.62665086 -0.63326817
vn -0.45429230 -0.82176485 -0.34397824
vn 0.44898101 -0.88914235 8.8554690e-2
vn 0.44898101 0.88914235 8.8554690e-2
vn -0.44898101 -0.88914235 8.8554690e-2
vn -0.44898101 0.88914235 8.8554690e-2
vn -0.57735027 -0.57735027 0.57735027
vn -0.57735027 0.57735027 0.57735027
vn 0.57735027 0.57735027 0.57735027
vn 0.57735027 -0.57735027 0.57735027
vn -0.57735027 -0.57735027 -0.57735027
vn -0.57735027 0.57735027 -0.57735027
vn 0.57735027 0.57735027 -0.57735027
vn 0.57735027 -0.57735027 -0.57735027
vn 0.44898101 -0.88914235 -8.8554690e-2
vn 0.45429230 -0.82176485 0.34397824
vn 0.45418073 -0.62665086 0.63326817
vn 0.45407169 -0.33790765 0.82440119
vn 0.45402726 4.4306174e-17 0.89098780
vn 0.45407169 0.33790765 0.82440119
vn 0.45418073 0.62665086 0.63326817
vn 0.45429230 0.82176485 0.34397824
vn 0.44898101 0.88914235 -8.8554690e-2
vn 0.45429230 0.82176485 -0.34397824
vn 0.45418073 0.62665086 -0.63326817
vn 0.45407169 0.33790765 -0.82440119
vn 0.45402726 8.2111537e-17 -0.89098780
vn 0.45407169 -0.33790765 -0.82440119
vn 0.45418073 -0.62665086 -0.63326817
vn 0.45429230 -0.82176485 -0.34397824
vn -0.44898101 -0.88914235 -8.8554690e-2
vn -0.45429230 -0.82176485 0.34397824
vn -0.45418073 -0.62665086 0.63326817
vn -0.45407169 -0.33790765 0.82440119
vn -0.45402726 7.5610727e-17 0.89098780
vn -0.45407169 0.33790765 0.82440119
vn -0.45418073 0.62665086 0.63326817
vn -0.45429230 0.82176485 0.34397824
vn -0.44898101 0.88914235 -8.8554690e-2
vn -0.45429230 0.82176485 -0.34397824
vn -0.45418073 0.62665086 -0.63326817
vn -0.45407169 0.33790765 -0.82440119
vn -0.45402726 1.1341609e-16 -0.89098780
vn -0.45407169 -0.33790765 -0.82440119
vn -0.45418073 -0.62665086 -0.63326817
vn -0.45429230 -0.82176485 -0.34397824
vn 0.44898101 -0.88914235 8.8554690e-2
vn 0.44898101 0.88914235 8.8554690e-2
vn -0.44898101 -0.88914235 8.8554690e-2
vn -0.44898101 0.88914235 8.8554690e-2
g cylinder3_cylinder3_auv
usemtl cylinder3_auv
s 1
f 1/50/1 16/61/16 15/71/15 14/80/14 13/82/13 12/74/12 11/65/11 10/57/10 9/49/9 34/41/34 8/34/8 7/27/7 6/21/6 5/3/5 4/18/4 3/26/3 2/35/2 33/42/33
f 1/133/1 17/176/17 32/168/32 16/134/16
f 3/107/3 19/145/19 18/142/18 2/106/2
f 4/108/4 20/143/20 19/145/19 3/107/3
f 5/110/5 21/146/21 20/143/20 4/108/4
f 6/112/6 22/144/22 21/146/21 5/110/5
f 7/109/7 23/147/23 22/144/22 6/112/6
f 8/111/8 24/148/24 23/147/23 7/109/7
f 10/132/10 26/174/26 25/175/25 9/140/9
f 11/139/11 27/173/27 26/174/26 10/132/10
f 12/138/12 28/172/28 27/173/27 11/139/11
f 13/137/13 29/171/29 28/172/28 12/138/12
f 14/136/14 30/170/30 29/171/29 13/137/13
f 15/135/15 31/169/31 30/170/30 14/136/14
f 16/134/16 32/168/32 31/169/31 15/135/15
f 18/142/18 35/141/35 33/105/33 2/106/2
f 25/5/25 36/97/36 34/98/34 9/6/9
f 33/7/33 35/8/35 17/100/17 1/99/1
f 34/113/34 36/149/36 24/148/24 8/111/8
f 35/44/35 18/38/18 19/30/19 20/23/20 21/4/21 22/22/22 23/29/23 24/36/24 36/47/36 25/53/25 26/63/26 27/72/27 28/79/28 29/84/29 30/76/30 31/68/31 32/59/32 17/55/17
f 37/85/37 40/86/40 39/90/39 38/89/38
f 37/16/37 41/96/41 44/93/44 40/13/40
f 39/15/39 43/94/43 42/95/42 38/14/38
f 42/92/42 43/91/43 44/87/44 41/88/41
f 45/43/45 60/33/60 59/25/59 58/17/58 57/1/57 56/19/56 55/31/55 54/39/54 53/48/53 78/54/78 52/60/52 51/66/51 50/73/50 49/81/49 48/75/48 47/67/47 46/58/46 77/51/77
f 45/121/45 61/150/61 76/155/76 60/114/60
f 47/127/47 63/162/63 62/164/62 46/130/46
f 48/126/48 64/165/64 63/162/63 47/127/47
f 49/129/49 65/163/65 64/165/64 48/126/48
f 50/128/50 66/161/66 65/163/65 49/129/49
f 51/124/51 67/167/67 66/161/66 50/128/50
f 52/125/52 68/159/68 67/167/67 51/124/51
f 54/119/54 70/156/70 69/158/69 53/122/53
f 55/120/55 71/157/71 70/156/70 54/119/54
f 56/116/56 72/154/72 71/157/71 55/120/55
f 57/118/57 73/152/73 72/154/72 56/116/56
f 58/115/58 74/153/74 73/152/73 57/118/57
f 59/117/59 75/151/75 74/153/74 58/115/58
f 60/114/60 76/155/76 75/151/75 59/117/59
f 62/164/62 79/160/79 77/131/77 46/130/46
f 69/9/69 80/101/80 78/102/78 53/10/53
f 77/11/77 79/12/79 61/104/61 45/103/45
f 78/123/78 80/166/80 68/159/68 52/125/52
f 79/56/79 62/62/62 63/69/63 64/77/64 65/83/65 66/78/66 67/70/67 68/64/68 80/52/80 69/46/69 70/37/70 71/28/71 72/20/72 73/2/73 74/24/74 75/32/75 76/40/76 61/45/61
g cylinder3_default
usemtl default
s 1
f 38//38 42//42 41//41 37//37
f 40//40 44//44 43//43 39//39
