# Exported from Wings 3D 1.4.1
mtllib wall4n.mtl
o cube1
#13 vertices, 13 faces
v -0.50000000 0.0000000e+0 0.50000000
v -0.50000000 1.20000000 0.50000000
v 0.50000000 1.20000000 0.50000000
v 0.50000000 0.0000000e+0 0.50000000
v -0.50000000 0.0000000e+0 -0.50000000
v -0.50000000 1.20000000 -0.50000000
v 0.50000000 1.20000000 -0.50000000
v 0.50000000 0.0000000e+0 -0.50000000
v -2.7755576e-17 1.40000000 -2.7755576e-17
v -0.50000000 1.40000000 0.0000000e+0
v 0.0000000e+0 1.40000000 -0.50000000
v 0.0000000e+0 1.40000000 0.50000000
v 0.50000000 1.40000000 0.0000000e+0
vt 8.0258553e-3 0.91498322
vt 8.0258553e-3 0.91495011
vt 8.0293431e-3 0.91496983
vt 8.0476053e-3 0.91496983
vt 9.4528624e-3 6.4899629e-3
vt 9.4528624e-3 6.5230761e-3
vt 9.4563501e-3 6.5096843e-3
vt 9.4746124e-3 6.5096843e-3
vt 0.98789439 8.0268965e-3
vt 0.98789439 8.0600097e-3
vt 0.98789787 8.0466179e-3
vt 0.98791614 8.0466179e-3
vt 0.98792095 8.0208898e-3
vt 0.98792095 8.0540030e-3
vt 0.98792443 8.0406112e-3
vt 0.98794270 8.0406112e-3
vn -0.57735027 -0.57735027 0.57735027
vn -0.51074318 0.69157994 0.51074318
vn 0.51074318 0.69157994 0.51074318
vn 0.57735027 -0.57735027 0.57735027
vn -0.57735027 -0.57735027 -0.57735027
vn -0.51074318 0.69157994 -0.51074318
vn 0.51074318 0.69157994 -0.51074318
vn 0.57735027 -0.57735027 -0.57735027
vn 0.0000000e+0 1.00000000 0.0000000e+0
vn -0.47413732 0.88045091 0.0000000e+0
vn 0.0000000e+0 0.88045091 -0.47413732
vn 0.0000000e+0 0.88045091 0.47413732
vn 0.47413732 0.88045091 0.0000000e+0
g cube1_cube1_auv
usemtl cube1_auv
s 1
f 2/11/2 9/3/9 10/7/10
f 6/9/6 9/2/9 11/5/11
f 6/15/6 10/7/10 9/3/9
f 7/13/7 11/5/11 9/2/9
f 9/1/9 12/6/12 3/10/3
f 9/4/9 13/8/13 7/12/7
f 12/6/12 9/1/9 2/14/2
f 13/8/13 9/4/9 3/16/3
g cube1_default
usemtl default
s 1
f 1//1 4//4 3//3 12//12 2//2
f 1//1 5//5 8//8 4//4
f 2//2 10//10 6//6 5//5 1//1
f 4//4 8//8 7//7 13//13 3//3
f 6//6 11//11 7//7 8//8 5//5
