# Exported from Wings 3D 1.4.1
mtllib wall2an.mtl
o cube1
#11 vertices, 9 faces
v -0.50000000 0.0000000e+0 0.50000000
v -0.50000000 1.20000000 0.50000000
v 0.50000000 1.20000000 0.50000000
v 0.50000000 0.0000000e+0 0.50000000
v -0.50000000 0.0000000e+0 -0.50000000
v -0.50000000 1.20000000 -0.50000000
v 0.50000000 1.20000000 -0.50000000
v 0.50000000 0.0000000e+0 -0.50000000
v -2.7755576e-17 1.40000000 -2.7755576e-17
v -0.50000000 1.40000000 0.0000000e+0
v 0.0000000e+0 1.40000000 -0.50000000
vt 9.2125982e-3 0.15094835
vt 9.2125982e-3 0.89689584
vt 9.4297753e-3 0.89689584
vt 9.4297753e-3 0.15094835
vt 0.63083551 0.15094835
vt 0.63083551 0.89689584
vt 0.63105268 0.89689584
vt 0.63105268 0.15094835
vt 0.63586341 0.99576070
vt 0.63588656 0.99585944
vt 0.63590948 0.99587531
vt 0.63590948 0.32698070
vt 0.63594363 0.99584360
vt 0.63594363 0.32694899
vt 0.99607419 0.66131339
vt 0.99607419 0.99576070
vt 0.99609733 0.66141214
vt 0.99609733 0.99585944
vt 0.99612025 0.66142801
vt 0.99612025 0.99587531
vt 0.99615440 0.66139629
vt 0.99615440 0.99584360
vn -0.57735027 -0.57735027 0.57735027
vn -0.51689552 0.47992545 0.70886570
vn 0.51074318 0.69157994 0.51074318
vn 0.57735027 -0.57735027 0.57735027
vn -0.57735027 -0.57735027 -0.57735027
vn -0.51074318 0.69157994 -0.51074318
vn 0.70886570 0.47992545 -0.51689552
vn 0.57735027 -0.57735027 -0.57735027
vn 0.0000000e+0 1.00000000 -8.9681009e-17
vn -0.47413732 0.88045091 -1.5791945e-16
vn 0.0000000e+0 0.88045091 -0.47413732
g cube1_cube1_auv
usemtl cube1_auv
s 1
f 1/5/1 4/1/4 3/2/3 2/6/2
f 3/14/3 9/21/9 10/22/10 2/13/2
f 4/4/4 8/8/8 7/7/7 3/3/3
f 6/10/6 9/17/9 11/18/11
f 6/9/6 10/16/10 9/15/9
f 7/11/7 11/20/11 9/19/9 3/12/3
g cube1_default
usemtl default
s 1
f 1//1 5//5 8//8 4//4
f 2//2 10//10 6//6 5//5 1//1
f 6//6 11//11 7//7 8//8 5//5
