# Exported from Wings 3D 1.4.1
mtllib wall2a.mtl
o cube1
#64 vertices, 37 faces
v -0.50000000 0.0000000e+0 0.50000000
v 0.50000000 0.0000000e+0 0.50000000
v -0.50000000 0.0000000e+0 -0.50000000
v 0.50000000 0.0000000e+0 -0.50000000
v -0.50000000 1.75000000 0.50000000
v 0.50000000 1.75000000 0.50000000
v -0.50000000 1.75000000 -0.50000000
v 0.50000000 1.75000000 -0.50000000
v -0.25000000 1.75000000 0.50000000
v 0.25000000 1.75000000 0.50000000
v -0.25000000 1.84375000 0.50000000
v 0.25000000 1.84375000 0.50000000
v -8.3333333e-2 1.75000000 0.50000000
v 8.3333333e-2 1.75000000 0.50000000
v -8.3333333e-2 1.84375000 0.50000000
v 8.3333333e-2 1.84375000 0.50000000
v -0.41666667 1.75000000 0.50000000
v -0.41666667 1.84375000 0.50000000
v 0.41666667 1.75000000 0.50000000
v 0.41666667 1.84375000 0.50000000
v -0.25000000 1.84375000 0.58000000
v 0.25000000 1.84375000 0.58000000
v -8.3333333e-2 1.84375000 0.58000000
v 8.3333333e-2 1.84375000 0.58000000
v -0.41666667 1.84375000 0.58000000
v 0.41666667 1.84375000 0.58000000
v -0.41666667 1.75000000 0.58000000
v 8.3333333e-2 1.75000000 0.58000000
v 0.25000000 1.75000000 0.58000000
v -0.25000000 1.75000000 0.58000000
v -8.3333333e-2 1.75000000 0.58000000
v 0.41666667 1.75000000 0.58000000
v 0.50000000 1.75000000 0.25000000
v 0.50000000 1.75000000 -0.25000000
v 0.50000000 1.84375000 0.25000000
v 0.50000000 1.84375000 -0.25000000
v 0.50000000 1.75000000 8.3333333e-2
v 0.50000000 1.75000000 -8.3333333e-2
v 0.50000000 1.84375000 8.3333333e-2
v 0.50000000 1.84375000 -8.3333333e-2
v 0.50000000 1.75000000 0.41666667
v 0.50000000 1.84375000 0.41666667
v 0.50000000 1.75000000 -0.41666667
v 0.50000000 1.84375000 -0.41666667
v 0.58000000 1.84375000 0.25000000
v 0.58000000 1.84375000 -0.25000000
v 0.58000000 1.84375000 8.3333333e-2
v 0.58000000 1.84375000 -8.3333333e-2
v 0.58000000 1.84375000 0.41666667
v 0.58000000 1.84375000 -0.41666667
v 0.58000000 1.75000000 0.25000000
v 0.58000000 1.75000000 8.3333333e-2
v 0.58000000 1.75000000 0.41666667
v 0.58000000 2.00000000 0.58000000
v 0.58000000 1.75000000 -0.41666667
v 0.58000000 1.75000000 0.58000000
v 0.58000000 1.75000000 -8.3333333e-2
v 0.58000000 1.75000000 -0.25000000
v 0.58000000 1.75000000 -0.50000000
v 0.58000000 2.00000000 -0.50000000
v -0.50000000 2.00000000 -0.50000000
v -0.50000000 1.75000000 -0.50000000
v -0.50000000 2.00000000 0.58000000
v -0.50000000 1.75000000 0.58000000
vt 2.4118953e-2 0.80355059
vt 2.4118953e-2 0.80360980
vt 2.4118953e-2 0.80364915
vt 2.4137170e-2 0.80358994
vt 2.4161867e-2 0.91754144
vt 2.4289848e-2 0.91741189
vt 2.4289848e-2 0.91747110
vt 2.4289848e-2 0.91751045
vt 6.1007702e-2 5.1924822e-3
vt 6.1007702e-2 0.80317609
vt 6.1060528e-2 5.1924822e-3
vt 6.1060528e-2 0.80317609
vt 6.1113581e-2 5.1924822e-3
vt 6.1113581e-2 5.2059332e-3
vt 6.1113581e-2 0.80318954
vt 6.1113581e-2 0.80317609
vt 9.8504747e-2 0.80349244
vt 9.8588811e-2 0.80331030
vt 9.8662075e-2 0.84619978
vt 9.8793381e-2 0.84609601
vt 9.9006921e-2 0.84592521
vt 9.9006921e-2 0.80317609
vt 9.9112801e-2 0.80317609
vt 9.9112801e-2 0.84592521
vt 0.17473615 0.80323178
vt 0.17486092 0.84618792
vt 0.17487829 0.84608269
vt 0.17500536 0.80317609
vt 0.17500536 0.84592521
vt 0.17511124 0.80317609
vt 0.17511124 0.84592521
vt 0.17512592 0.80356449
vt 0.25086186 0.80371178
vt 0.25087671 0.84618234
vt 0.25096175 0.80315871
vt 0.25096482 0.84609334
vt 0.25100380 0.80317609
vt 0.25100380 0.84592521
vt 0.25110968 0.80317609
vt 0.25110968 0.84592521
vt 0.32693644 0.84613269
vt 0.32693952 0.80319806
vt 0.32700224 0.80317609
vt 0.32700224 0.84592521
vt 0.32702455 0.84614299
vt 0.32703941 0.80367243
vt 0.32710812 0.80317609
vt 0.32710812 0.84592521
vt 0.40277534 0.80352514
vt 0.40300068 0.80317609
vt 0.40300068 0.84592521
vt 0.40302297 0.84612204
vt 0.40304034 0.84614857
vt 0.40310656 0.80317609
vt 0.40310656 0.84592521
vt 0.40316511 0.80327113
vt 0.47899912 0.84592521
vt 0.47899912 0.80317609
vt 0.47910500 0.80317609
vt 0.47910500 0.84592521
vt 0.47910789 0.84613536
vt 0.47923919 0.84616043
vt 0.47931246 0.80334965
vt 0.47939652 0.80345309
vt 0.48980096 0.95219461
vt 0.48983976 0.95216999
vt 0.50960746 0.92443064
vt 0.50964625 0.92440602
vt 0.51699834 5.1924822e-3
vt 0.51699834 0.80317609
vt 0.51705116 5.1924822e-3
vt 0.51705116 0.80317609
vt 0.51710421 5.1924822e-3
vt 0.51710421 5.2059332e-3
vt 0.51710421 0.80318954
vt 0.51710421 0.80317609
vt 0.52042357 6.9884486e-3
vt 0.52042357 0.48542862
vt 0.53851203 0.94496204
vt 0.53852826 0.94506398
vt 0.53856706 0.94503936
vt 0.53858148 0.94495418
vt 0.54624133 0.99260528
vt 0.54625756 0.99270723
vt 0.54629635 0.99268261
vt 0.54631077 0.99259742
vt 0.55361142 0.91745124
vt 0.55373940 0.91750209
vt 0.55373940 0.91756130
vt 0.55373940 0.91760065
vt 0.55376410 0.80364915
vt 0.55376410 0.80355059
vt 0.55376410 0.80360980
vt 0.55378231 0.80358994
vt 0.55963007 0.91600439
vt 0.55968329 0.91589459
vt 0.58404287 0.88371874
vt 0.58409609 0.88360894
vt 0.58708542 0.93641398
vt 0.58713863 0.93630418
vt 0.61104611 0.90465635
vt 0.61109932 0.90454654
vt 0.62840687 0.82764651
vt 0.62846008 0.82753671
vt 0.65440138 0.79681299
vt 0.65445460 0.79670319
vt 0.65483485 0.84908142
vt 0.65488807 0.84897162
vt 0.67986809 0.81896362
vt 0.67992131 0.81885381
vt 0.70158878 0.74428965
vt 0.70164199 0.74417985
vt 0.72618491 0.76704230
vt 0.72623812 0.76693250
vt 0.72930568 0.71575836
vt 0.72935890 0.71564855
vt 0.75271505 0.73929390
vt 0.75276827 0.73918410
vt 0.77944650 0.66768315
vt 0.77949972 0.66757335
vt 0.80193516 0.69181389
vt 0.80198838 0.69170409
vt 0.80870517 0.64166469
vt 0.80875838 0.64155488
vt 0.83010782 0.66649196
vt 0.83016103 0.66638216
vt 0.86134990 0.59772025
vt 0.86140312 0.59761044
vt 0.88203551 0.62301667
vt 0.88208873 0.62290687
vt 0.89166102 0.57373928
vt 0.89171424 0.57362948
vt 0.91166497 0.59950565
vt 0.91171819 0.59939585
vt 0.94585803 0.53245774
vt 0.94591125 0.53234794
vt 0.96555531 0.55847571
vt 0.96560852 0.55836591
vt 0.97653492 0.50945646
vt 0.97658814 0.50934666
vt 0.99616129 0.53563383
vt 0.99621450 0.53552403
vt 0.99886374 6.9884486e-3
vt 0.99886374 0.48542862
vn -0.57735027 -0.57735027 0.57735027
vn 0.57735027 -0.57735027 0.57735027
vn -0.57735027 -0.57735027 -0.57735027
vn 0.57735027 -0.57735027 -0.57735027
vn -0.57735027 -0.57735027 0.57735027
vn 0.57735027 -0.57735027 0.57735027
vn -0.70710678 0.0000000e+0 -0.70710678
vn 0.57735027 -0.57735027 -0.57735027
vn -0.57735027 -0.57735027 0.57735027
vn 0.57735027 -0.57735027 0.57735027
vn -0.57735027 -0.57735027 0.57735027
vn 0.57735027 -0.57735027 0.57735027
vn 0.57735027 -0.57735027 0.57735027
vn -0.57735027 -0.57735027 0.57735027
vn 0.57735027 -0.57735027 0.57735027
vn -0.57735027 -0.57735027 0.57735027
vn 0.57735027 -0.57735027 0.57735027
vn 0.57735027 -0.57735027 0.57735027
vn -0.57735027 -0.57735027 0.57735027
vn -0.57735027 -0.57735027 0.57735027
vn -0.57735027 -0.57735027 0.57735027
vn 0.57735027 -0.57735027 0.57735027
vn 0.57735027 -0.57735027 0.57735027
vn -0.57735027 -0.57735027 0.57735027
vn 0.57735027 -0.57735027 0.57735027
vn -0.57735027 -0.57735027 0.57735027
vn 0.57735027 -0.57735027 0.57735027
vn -0.57735027 -0.57735027 0.57735027
vn 0.57735027 -0.57735027 0.57735027
vn -0.57735027 -0.57735027 0.57735027
vn 0.57735027 -0.57735027 0.57735027
vn -0.57735027 -0.57735027 0.57735027
vn 0.57735027 -0.57735027 0.57735027
vn 0.57735027 -0.57735027 -0.57735027
vn 0.57735027 -0.57735027 0.57735027
vn 0.57735027 -0.57735027 -0.57735027
vn 0.57735027 -0.57735027 -0.57735027
vn 0.57735027 -0.57735027 0.57735027
vn 0.57735027 -0.57735027 -0.57735027
vn 0.57735027 -0.57735027 0.57735027
vn 0.57735027 -0.57735027 -0.57735027
vn 0.57735027 -0.57735027 -0.57735027
vn 0.57735027 -0.57735027 0.57735027
vn 0.57735027 -0.57735027 0.57735027
vn 0.57735027 -0.57735027 0.57735027
vn 0.57735027 -0.57735027 -0.57735027
vn 0.57735027 -0.57735027 -0.57735027
vn 0.57735027 -0.57735027 0.57735027
vn 0.57735027 -0.57735027 -0.57735027
vn 0.57735027 -0.57735027 0.57735027
vn 0.57735027 -0.57735027 0.57735027
vn 0.57735027 -0.57735027 -0.57735027
vn 0.57735027 -0.57735027 -0.57735027
vn 0.57735027 0.57735027 0.57735027
vn 0.57735027 -0.57735027 0.57735027
vn 0.57735027 -0.57735027 0.57735027
vn 0.57735027 -0.57735027 0.57735027
vn 0.57735027 -0.57735027 -0.57735027
vn 0.57735027 -0.57735027 -0.57735027
vn 0.57735027 0.57735027 -0.57735027
vn -0.57735027 0.57735027 -0.57735027
vn -0.70710678 0.0000000e+0 -0.70710678
vn -0.57735027 0.57735027 0.57735027
vn -0.57735027 -0.57735027 0.57735027
g cube1_cube1_auv
usemtl cube1_auv
s 1
f 1/13/1 2/73/2 6/76/6 19/59/19 20/60/20 12/55/12 10/54/10 14/47/14 16/48/16 15/40/15 13/39/13 9/30/9 11/31/11 18/24/18 17/23/17 5/16/5
f 4/69/4 8/70/8 43/58/43 44/57/44 36/51/36 34/50/34 38/43/38 40/44/40 39/38/39 37/37/37 33/28/33 35/29/35 42/21/42 41/22/41 6/10/6 2/9/2
f 5/75/5 7/15/7 3/14/3 1/74/1
f 7/15/7 5/82/5 64/93/64 62/83/62
f 7/72/7 8/12/8 4/11/4 3/71/3
f 8/81/8 59/85/59 55/66/55 43/68/43
f 10/128/10 29/130/29 28/126/28 14/124/14
f 11/104/11 9/106/9 30/110/30 21/108/21
f 12/132/12 22/134/22 29/130/29 10/128/10
f 13/112/13 31/114/31 30/110/30 9/106/9
f 15/116/15 23/118/23 31/114/31 13/112/13
f 16/120/16 14/124/14 28/126/28 24/122/24
f 16/120/16 24/122/24 23/118/23 15/116/15
f 17/96/17 27/100/27 64/86/64 5/82/5
f 18/98/18 25/102/25 27/100/27 17/96/17
f 20/136/20 19/140/19 32/142/32 26/138/26
f 20/136/20 26/138/26 22/134/22 12/132/12
f 21/108/21 25/102/25 18/98/18 11/104/11
f 26/61/26 32/63/32 56/94/56 54/87/54 63/5/63 64/4/64 27/17/27 25/19/25 21/26/21 30/32/30 31/33/31 23/34/23 24/41/24 28/42/28 29/56/29 22/52/22
f 34/127/34 58/129/58 57/125/57 38/123/38
f 35/103/35 33/105/33 51/109/51 45/107/45
f 36/131/36 46/133/46 58/129/58 34/127/34
f 37/111/37 52/113/52 51/109/51 33/105/33
f 39/115/39 47/117/47 52/113/52 37/111/37
f 40/119/40 38/123/38 57/125/57 48/121/48
f 40/119/40 48/121/48 47/117/47 39/115/39
f 41/95/41 53/99/53 56/84/56 32/65/32 19/67/19 6/80/6
f 42/97/42 49/101/49 53/99/53 41/95/41
f 44/135/44 43/139/43 55/141/55 50/137/50
f 44/135/44 50/137/50 46/133/46 36/131/36
f 45/107/45 49/101/49 42/97/42 35/103/35
f 45/27/45 51/25/51 52/35/52 47/36/47 48/45/48 57/46/57 58/49/58 46/53/46 50/62/50 55/64/55 59/92/59 60/88/60 54/6/54 56/1/56 53/18/53 49/20/49
f 59/3/59 62/91/62 61/90/61 60/8/60
f 60/144/60 61/78/61 63/77/63 54/143/54
f 62/91/62 59/85/59 8/12/8 7/79/7
f 62/2/62 64/93/64 63/89/63 61/7/61
g cube1_default
usemtl default
s 1
f 1//1 3//3 4//4 2//2
