# Exported from Wings 3D 1.4.1
mtllib wall0n.mtl
o cube1
#9 vertices, 9 faces
v -0.50000000 0.0000000e+0 0.50000000
v -0.50000000 1.20000000 0.50000000
v 0.50000000 1.20000000 0.50000000
v 0.50000000 0.0000000e+0 0.50000000
v -0.50000000 0.0000000e+0 -0.50000000
v -0.50000000 1.20000000 -0.50000000
v 0.50000000 1.20000000 -0.50000000
v 0.50000000 0.0000000e+0 -0.50000000
v -2.7755576e-17 1.40000000 -2.7755576e-17
vt 4.2966563e-3 3.7706173e-3
vt 4.2966563e-3 3.8412756e-3
vt 4.2966563e-3 0.68581805
vt 4.2966563e-3 0.68574739
vt 4.3019271e-3 3.8412756e-3
vt 4.3019271e-3 0.68574739
vt 4.3019271e-3 0.68581805
vt 4.3019271e-3 3.7706173e-3
vt 0.30066633 0.96459741
vt 0.30078163 0.96452496
vt 0.30085629 0.96451608
vt 0.30094618 0.96450484
vt 0.57261064 3.7706173e-3
vt 0.57261064 3.8412756e-3
vt 0.57261064 0.68581805
vt 0.57261064 0.68574739
vt 0.57261591 3.8412756e-3
vt 0.57261591 0.68574739
vt 0.57261591 0.68581805
vt 0.57261591 3.7706173e-3
vt 0.95840165 0.30686209
vt 0.95851695 0.30678964
vt 0.95859161 0.30678076
vt 0.95868150 0.30676952
vt 0.98373530 0.98993106
vt 0.98385060 0.98985861
vt 0.98392526 0.98984973
vt 0.98401515 0.98983849
vn -0.57735027 -0.57735027 0.57735027
vn -0.51074318 0.69157994 0.51074318
vn 0.51074318 0.69157994 0.51074318
vn 0.57735027 -0.57735027 0.57735027
vn -0.57735027 -0.57735027 -0.57735027
vn -0.51074318 0.69157994 -0.51074318
vn 0.51074318 0.69157994 -0.51074318
vn 0.57735027 -0.57735027 -0.57735027
vn 0.0000000e+0 1.00000000 0.0000000e+0
g cube1_cube1_auv
usemtl cube1_auv
s 1
f 1/2/1 4/14/4 3/15/3 2/3/2
f 2/16/2 6/4/6 5/1/5 1/13/1
f 2/21/2 9/25/9 6/9/6
f 3/23/3 9/27/9 2/11/2
f 4/8/4 8/20/8 7/18/7 3/6/3
f 6/19/6 7/7/7 8/5/8 5/17/5
f 6/24/6 9/28/9 7/12/7
f 7/22/7 9/26/9 3/10/3
g cube1_default
usemtl default
s 1
f 1//1 5//5 8//8 4//4
